<?xml version="1.0" encoding="UTF-8" standalone="no"?>
<!DOCTYPE svg PUBLIC "-//W3C//DTD SVG 1.1//EN" "http://www.w3.org/Graphics/SVG/1.1/DTD/svg11.dtd">
<svg width="100%" height="100%" viewBox="0 0 2500 2500" version="1.1" xmlns="http://www.w3.org/2000/svg" xmlns:xlink="http://www.w3.org/1999/xlink" xml:space="preserve" xmlns:serif="http://www.serif.com/" style="fill-rule:evenodd;clip-rule:evenodd;stroke-linejoin:round;stroke-miterlimit:2;">
    <g transform="matrix(6.07701,0,0,6.07701,1250,1250)">
        <g transform="matrix(1,0,0,1,-256,-256)">
            <g transform="matrix(1,0,0,1,246.118,58.8716)">
                <path d="M0,0C17.04,-0.592 33.188,0.701 49.882,4.128L52.159,4.582C69.514,8.131 86.53,14.717 102.078,23.15C103.835,24.103 105.607,25.028 107.378,25.953C122.061,33.902 134.907,44.57 146.882,56.128L149.453,58.542C156.347,65.178 162.227,72.434 167.882,80.128L169.147,81.849C186.515,105.85 197.472,133.11 202.882,162.128L203.451,164.981C205.082,174.055 205.155,182.981 205.088,192.167C205.07,194.756 205.068,197.344 205.068,199.933C205.018,225.523 200.119,249.6 189.882,273.128L188.824,275.595C179.005,298.201 164.845,317.393 147.882,335.128L145.953,337.183C132.254,351.406 115.288,362.091 97.882,371.128L95.958,372.132C80.003,380.328 62.476,385.777 44.882,389.128L42.511,389.582C21.776,393.381 0.711,393.181 -20.118,390.128L-22.924,389.719C-66.125,383 -110.297,359.17 -138.118,325.128L-139.385,323.627C-164.759,293.577 -180.091,258.122 -185.118,219.128L-185.692,215.417C-191.494,167.505 -176.92,116.959 -147.663,78.839C-146.161,76.924 -144.644,75.023 -143.118,73.128L-141.662,71.306C-110.328,32.409 -62.256,6.152 -12.555,0.691C-8.375,0.321 -4.192,0.173 0,0ZM85.109,283.027C73.853,277.945 62.648,280.786 53.976,288.792C49.393,293.906 47.701,299.59 47.507,306.378C47.866,314.025 50.514,319.948 56.132,325.253C62.174,329.373 66.889,331.8 74.367,331.445C81.864,330.502 87.917,327.944 92.882,322.128C98.033,314.931 99.064,307.825 97.882,299.128C95.968,292.327 91.063,286.725 85.109,283.027ZM-51.118,106.128C-68.759,117.393 -82.558,134.842 -90.641,154.047L-91.743,156.753L-92.819,159.376L-93.782,161.855C-95.019,165.035 -95.369,166.9 -94.118,170.128L-91.93,172.128C-85.955,177.929 -82.864,185.295 -82.502,193.536C-82.46,203.814 -84.131,211.238 -91.493,218.753C-93.704,220.73 -93.704,220.73 -95.118,223.128C-94.377,227.99 -92.781,232.348 -90.86,236.86L-89.993,238.816C-81.199,258.689 -68.412,274.31 -50.118,286.128C-48.249,283.149 -46.385,280.166 -44.528,277.179L-42.243,273.503C-41.119,271.712 -39.996,269.921 -38.881,268.125L-37.813,266.402C-35.302,262.377 -33.461,258.685 -32.118,254.128C-37.24,249.96 -41.999,245.597 -46.364,240.625C-58.294,226.141 -62.324,207.462 -61.118,189.128C-58.713,169.909 -51.446,154.94 -36.68,142.253C-34.684,140.636 -34.684,140.636 -33.118,139.128C-32.118,136.128 -32.118,136.128 -33.425,133.357L-35.415,130.035C-36.132,128.827 -36.851,127.62 -37.571,126.414C-38.72,124.521 -39.868,122.628 -41,120.726C-44.015,115.647 -46.655,110.09 -51.118,106.128ZM-104.375,173.734C-113.056,169.784 -123.446,169.054 -131.434,174.792C-137.264,179.882 -141.535,184.117 -142.454,192.019C-142.744,200.923 -141.123,207.91 -134.969,214.519C-129.66,219.134 -124.221,221.42 -117.18,221.503C-109.942,221.233 -103.543,218.498 -98.368,213.441C-93.002,206.165 -91.02,199.144 -92.118,190.128C-94.08,183.316 -98.31,177.48 -104.375,173.734ZM80.882,203.128C79.919,207.946 78.982,212.78 77.632,217.503C71.087,235.999 59.643,250.496 42.132,259.503C22.385,269.063 3.292,269.209 -17.43,262.441L-21.118,261.128C-23.864,265.658 -26.45,270.263 -29.002,274.904L-30.805,278.191L-32.643,281.49L-34.379,284.664C-36.423,288.368 -37.118,289.802 -37.118,294.128C-14.691,304.052 10.91,308.777 34.992,301.648C38.302,299.908 39.159,298.881 40.507,295.441C41.967,289.779 44.033,285.584 47.882,281.128C55.551,274.612 63.339,271.768 73.308,271.962C75.298,272.032 77.287,272.097 79.277,272.158L82.156,272.218L84.763,272.308C86.882,272.128 86.882,272.128 88.882,270.128C105.598,251.089 116.882,228.782 116.882,203.128L80.882,203.128ZM84.816,63.878C74.242,58.431 63.227,60.303 54.527,68.277C49.227,74.244 47.107,80.604 47.531,88.527C48.643,96.761 52.382,102.462 58.781,107.675C65.333,112.011 72.238,112.005 79.882,111.128C86.789,108.967 92.023,103.97 95.882,97.941C99.061,91.604 98.84,85.135 97.218,78.351C94.785,71.316 91.068,67.661 84.816,63.878ZM37.882,91.128C23.573,83.773 -2.209,86.512 -17.184,90.741L-19.368,91.378C-26,93.313 -32.11,95.66 -38.118,99.128C-33.004,109.814 -27.223,119.982 -21.118,130.128C-17.922,129.667 -14.914,129.069 -11.813,128.156C-3.586,125.644 3.755,124.621 12.355,124.933L15.882,125.128C20.157,125.362 24.239,126.124 28.382,127.191C47.071,133.132 62.696,144.351 72.159,161.777L73.195,163.753C74.707,166.539 75.726,169.101 76.882,172.128L80.882,189.128L116.882,189.128C116.882,163.14 105.317,138.697 87.453,120.07C85.882,119.128 85.882,119.128 84.039,119.557C79.8,120.322 79.8,120.322 75.474,120.363L73.07,120.378C69.263,120.479 65.59,120.638 61.911,119.54C54.219,116.338 46.616,111.827 42.882,104.128C41.646,99.416 40.605,95.22 37.882,91.128Z" style="fill:rgb(253,253,253);"/>
            </g>
        </g>
    </g>
</svg>
