<?xml version="1.0" encoding="UTF-8" standalone="no"?>
<!DOCTYPE svg PUBLIC "-//W3C//DTD SVG 1.1//EN" "http://www.w3.org/Graphics/SVG/1.1/DTD/svg11.dtd">
<svg width="100%" height="100%" viewBox="0 0 766 766" version="1.1" xmlns="http://www.w3.org/2000/svg" xmlns:xlink="http://www.w3.org/1999/xlink" xml:space="preserve" xmlns:serif="http://www.serif.com/" style="fill-rule:evenodd;clip-rule:evenodd;stroke-linejoin:round;stroke-miterlimit:2;">
    <g transform="matrix(1.89234,0,0,1.89234,562.014,44.4847)">
        <path d="M0,0C1.562,0.829 3.134,1.636 4.708,2.44C19.875,10.363 33.29,21.256 45.728,32.917L47.224,34.31C61.125,47.357 72.177,62.463 81.728,78.917L82.883,80.882C109.165,126.123 114.006,180.913 101.198,231.099C97.075,246.517 91.303,260.887 83.728,274.917L82.756,276.74C57.641,323.513 13.637,357.652 -36.874,372.964C-86.532,387.421 -141.937,383.291 -187.77,358.539C-189.944,357.343 -192.11,356.134 -194.272,354.917L-197.194,353.296C-246.248,325.001 -277.316,277.523 -291.862,223.749C-304.143,175.442 -294.5,121.822 -270.272,78.917L-269.123,76.854C-261.349,62.98 -251.635,50.861 -240.668,39.38C-239.738,38.406 -238.814,37.426 -237.896,36.442C-225.235,22.898 -210.276,12.181 -194.272,2.917L-192.259,1.746C-133.81,-31.802 -59.178,-31.46 0,0ZM-113.272,56.917C-116.95,56.687 -120.198,57.208 -123.745,58.179L-126.272,58.917C-151.077,65.887 -171.639,79.566 -188.702,98.632C-206.773,119.923 -219.232,147.557 -217.272,175.917C-215.272,172.917 -215.272,172.917 -214.33,170.991C-208.674,158.405 -203.689,144.005 -190.272,137.917C-184.882,137.081 -180.966,138.172 -176.272,140.917C-172.791,145.716 -171.81,149.214 -171.752,155.101L-171.786,157.844C-171.774,160.925 -171.768,164.004 -171.788,167.085C-171.803,169.284 -171.812,171.483 -171.815,173.683C-171.814,178.272 -171.818,182.862 -171.84,187.452C-171.874,193.418 -171.902,199.384 -171.901,205.351C-171.9,210.011 -171.904,214.672 -171.916,219.332L-171.936,225.995C-171.938,229.192 -171.942,232.388 -171.961,235.585L-171.981,238.508L-171.979,241.275L-172.005,243.807C-172.02,247.248 -172.233,247.859 -174.272,250.917C-177.311,253.31 -178.913,253.909 -182.823,253.991L-186.584,253.604L-190.385,253.241L-193.272,252.917C-190.53,257.487 -187.347,261.083 -183.522,264.788L-181.272,266.917C-167.081,280.541 -151.629,290.482 -132.889,296.784L-129.272,297.917C-119.817,300.887 -109.97,303.354 -99.989,302.909C-92.635,301.914 -92.635,301.914 -81.316,289.155C-79.38,286.96 -77.403,284.811 -75.409,282.669C-74.134,281.307 -72.862,279.943 -71.592,278.577L-69.837,276.604L-68.194,274.784C-66.021,272.329 -64.515,271.489 -61.272,270.917C-59.963,272.473 -58.65,274.026 -57.323,275.565L-55.272,277.917C-53.892,279.502 -52.508,281.082 -51.111,282.652L-49.647,284.292C-48.726,285.349 -47.797,286.399 -46.858,287.44C-44.457,289.74 -43.555,290.962 -40.272,290.917C-28.822,286.007 -16.645,277.03 -8.127,267.968L-6.272,265.917C9.226,249.483 20.382,230.996 25.728,208.917C22.728,210.917 22.728,210.917 20.013,213.421C11.655,221.357 3.161,229.724 -7.459,234.542C-14.287,236.957 -19.766,235.569 -26.272,232.917C-26.196,220.267 -26.111,207.616 -26.014,194.966C-25.964,188.51 -25.913,182.055 -25.873,175.6C-25.836,169.282 -25.796,162.964 -25.745,156.646L-25.686,149.421C-25.669,145.963 -25.652,142.506 -25.621,139.049L-25.591,135.853C-25.571,126.739 -24.638,118.592 -21.065,110.148L-20.209,108.229C-15.203,96.962 -8.839,87.118 -0.358,78.116C2.343,75.269 2.343,75.269 7.728,68.917L5.564,68.847C-17.937,69.429 -43.494,86.601 -59.334,102.979C-61.583,105.39 -63.321,107.488 -66.334,108.847C-68.315,109.052 -68.315,109.052 -70.174,108.14C-76.802,104.362 -82.788,104.501 -90.272,104.917L-90.272,105.917C-87.29,108.057 -87.29,108.057 -85.214,109.924C-75.999,125.876 -75.999,125.876 -76.454,144.849C-76.468,147.181 -76.473,149.512 -76.469,151.844C-76.454,156.729 -76.447,161.612 -76.468,166.497C-76.504,172.826 -76.524,179.154 -76.49,185.484C-76.462,190.441 -76.449,195.398 -76.458,200.355C-76.465,202.718 -76.471,205.081 -76.475,207.444C-76.455,210.834 -76.437,214.222 -76.464,217.611L-76.496,220.718C-76.461,223.431 -76.489,226.081 -76.709,228.786C-77.378,231.32 -78.213,232.29 -80.197,233.973L-83.272,235.917C-89.065,239.735 -95.711,243.246 -102.549,244.534C-109.345,244.702 -113.809,243.136 -118.895,238.554C-121.926,232.9 -121.926,232.9 -121.958,226.301L-121.931,222.853C-121.965,219.008 -121.995,215.164 -121.986,211.318C-121.978,207.876 -121.99,204.434 -122.011,200.992C-122.053,194.49 -122.073,187.988 -122.076,181.486C-122.08,174.027 -122.105,166.568 -122.14,159.109C-122.213,143.685 -122.255,128.261 -122.27,112.837L-122.272,110.917C-124.181,112.024 -124.181,112.024 -126.147,112.085L-128.272,112.104L-130.397,112.147C-132.517,112.082 -132.517,112.082 -134.272,109.917C-137.855,104.699 -138.862,99.991 -138.584,93.706C-136.83,78.043 -127.271,68.149 -115.467,58.663L-113.272,56.917Z" style="fill:rgb(254,254,254);"/>
    </g>
</svg>
